solid OpenSCAD_Model
  facet normal 1 0 0
    outer loop
      vertex 100 0 1
      vertex 100 10 0
      vertex 100 10 1
    endloop
  endfacet
  facet normal 1 0 0
    outer loop
      vertex 100 10 0
      vertex 100 0 1
      vertex 100 0 0
    endloop
  endfacet
  facet normal 0 0 1
    outer loop
      vertex 10 100 1
      vertex 7 90 1
      vertex 10 10 1
    endloop
  endfacet
  facet normal 0 0 1
    outer loop
      vertex 10 100 1
      vertex 6.246978759765625 91.56365966796875 1
      vertex 7 90 1
    endloop
  endfacet
  facet normal 0 0 1
    outer loop
      vertex 10 100 1
      vertex 4.554957389831543 91.94985961914062 1
      vertex 6.246978759765625 91.56365966796875 1
    endloop
  endfacet
  facet normal 0 0 1
    outer loop
      vertex 0 100 1
      vertex 4.554957389831543 91.94985961914062 1
      vertex 10 100 1
    endloop
  endfacet
  facet normal 0 0 1
    outer loop
      vertex 3.198061943054199 90.86776733398438 1
      vertex 0 100 1
      vertex 3.198061943054199 89.13223266601562 1
    endloop
  endfacet
  facet normal 0 0 1
    outer loop
      vertex 4.554957389831543 91.94985961914062 1
      vertex 0 100 1
      vertex 3.198061943054199 90.86776733398438 1
    endloop
  endfacet
  facet normal 0 0 1
    outer loop
      vertex 100 10 1
      vertex 94 7 1
      vertex 100 0 1
    endloop
  endfacet
  facet normal 0 0 1
    outer loop
      vertex 100 10 1
      vertex 90 7 1
      vertex 94 7 1
    endloop
  endfacet
  facet normal 0 0 1
    outer loop
      vertex 90 7 1
      vertex 10 10 1
      vertex 90 3 1
    endloop
  endfacet
  facet normal 0 0 1
    outer loop
      vertex 10 10 1
      vertex 90 7 1
      vertex 100 10 1
    endloop
  endfacet
  facet normal 0 0 1
    outer loop
      vertex 94 3 1
      vertex 100 0 1
      vertex 94 7 1
    endloop
  endfacet
  facet normal 0 0 1
    outer loop
      vertex 90 3 1
      vertex 100 0 1
      vertex 94 3 1
    endloop
  endfacet
  facet normal 0 0 1
    outer loop
      vertex 0 0 1
      vertex 90 3 1
      vertex 10 10 1
    endloop
  endfacet
  facet normal 0 0 1
    outer loop
      vertex 6.246978759765625 88.43634033203125 1
      vertex 10 10 1
      vertex 7 90 1
    endloop
  endfacet
  facet normal 0 0 1
    outer loop
      vertex 4.554957389831543 88.05014038085938 1
      vertex 10 10 1
      vertex 6.246978759765625 88.43634033203125 1
    endloop
  endfacet
  facet normal 0 0 1
    outer loop
      vertex 3.198061943054199 89.13223266601562 1
      vertex 10 10 1
      vertex 4.554957389831543 88.05014038085938 1
    endloop
  endfacet
  facet normal 0 0 1
    outer loop
      vertex 0 0 1
      vertex 3.198061943054199 89.13223266601562 1
      vertex 0 100 1
    endloop
  endfacet
  facet normal 0 0 1
    outer loop
      vertex 90 3 1
      vertex 0 0 1
      vertex 100 0 1
    endloop
  endfacet
  facet normal 0 0 1
    outer loop
      vertex 3.198061943054199 89.13223266601562 1
      vertex 0 0 1
      vertex 10 10 1
    endloop
  endfacet
  facet normal 0 0 -1
    outer loop
      vertex 100 0 0
      vertex 10 10 0
      vertex 100 10 0
    endloop
  endfacet
  facet normal 0 0 -1
    outer loop
      vertex 0 0 0
      vertex 10 10 0
      vertex 100 0 0
    endloop
  endfacet
  facet normal 0 0 -1
    outer loop
      vertex 0 100 0
      vertex 10 10 0
      vertex 0 0 0
    endloop
  endfacet
  facet normal 0 0 -1
    outer loop
      vertex 10 10 0
      vertex 0 100 0
      vertex 10 100 0
    endloop
  endfacet
  facet normal -1 0 0
    outer loop
      vertex 0 0 0
      vertex 0 100 1
      vertex 0 100 0
    endloop
  endfacet
  facet normal -1 0 0
    outer loop
      vertex 0 100 1
      vertex 0 0 0
      vertex 0 0 1
    endloop
  endfacet
  facet normal 0 1 0
    outer loop
      vertex 100 10 0
      vertex 10 10 1
      vertex 100 10 1
    endloop
  endfacet
  facet normal 0 1 0
    outer loop
      vertex 10 10 1
      vertex 100 10 0
      vertex 10 10 0
    endloop
  endfacet
  facet normal 0 -1 0
    outer loop
      vertex 0 0 0
      vertex 100 0 1
      vertex 0 0 1
    endloop
  endfacet
  facet normal 0 -1 0
    outer loop
      vertex 100 0 1
      vertex 0 0 0
      vertex 100 0 0
    endloop
  endfacet
  facet normal 0 1 0
    outer loop
      vertex 10 100 0
      vertex 0 100 1
      vertex 10 100 1
    endloop
  endfacet
  facet normal 0 1 0
    outer loop
      vertex 0 100 1
      vertex 10 100 0
      vertex 0 100 0
    endloop
  endfacet
  facet normal 1 0 0
    outer loop
      vertex 10 10 1
      vertex 10 100 0
      vertex 10 100 1
    endloop
  endfacet
  facet normal 1 0 0
    outer loop
      vertex 10 100 0
      vertex 10 10 1
      vertex 10 10 0
    endloop
  endfacet
  facet normal 1 0 0
    outer loop
      vertex 94 3 1.2999992370605469
      vertex 94 7 1
      vertex 94 7 1.2999992370605469
    endloop
  endfacet
  facet normal 1 0 0
    outer loop
      vertex 94 7 1
      vertex 94 3 1.2999992370605469
      vertex 94 3 1
    endloop
  endfacet
  facet normal 0 0 1
    outer loop
      vertex 90 7 1.2999992370605469
      vertex 94 3 1.2999992370605469
      vertex 94 7 1.2999992370605469
    endloop
  endfacet
  facet normal 0 0 1
    outer loop
      vertex 94 3 1.2999992370605469
      vertex 90 7 1.2999992370605469
      vertex 90 3 1.2999992370605469
    endloop
  endfacet
  facet normal -1 0 0
    outer loop
      vertex 90 3 1
      vertex 90 7 1.2999992370605469
      vertex 90 7 1
    endloop
  endfacet
  facet normal -1 0 0
    outer loop
      vertex 90 7 1.2999992370605469
      vertex 90 3 1
      vertex 90 3 1.2999992370605469
    endloop
  endfacet
  facet normal 0 1 0
    outer loop
      vertex 94 7 1
      vertex 90 7 1.2999992370605469
      vertex 94 7 1.2999992370605469
    endloop
  endfacet
  facet normal 0 1 0
    outer loop
      vertex 90 7 1.2999992370605469
      vertex 94 7 1
      vertex 90 7 1
    endloop
  endfacet
  facet normal 0 -1 0
    outer loop
      vertex 90 3 1
      vertex 94 3 1.2999992370605469
      vertex 90 3 1.2999992370605469
    endloop
  endfacet
  facet normal 0 -1 0
    outer loop
      vertex 94 3 1.2999992370605469
      vertex 90 3 1
      vertex 94 3 1
    endloop
  endfacet
  facet normal 0.22252483053345076 0.9749270228053272 0
    outer loop
      vertex 6.246978759765625 91.56365966796875 1
      vertex 4.554957389831543 91.94985961914062 1.2999992370605469
      vertex 6.246978759765625 91.56365966796875 1.2999992370605469
    endloop
  endfacet
  facet normal 0.22252483053345076 0.9749270228053272 0
    outer loop
      vertex 4.554957389831543 91.94985961914062 1.2999992370605469
      vertex 6.246978759765625 91.56365966796875 1
      vertex 4.554957389831543 91.94985961914062 1
    endloop
  endfacet
  facet normal -1 0 0
    outer loop
      vertex 3.198061943054199 89.13223266601562 1
      vertex 3.198061943054199 90.86776733398438 1.2999992370605469
      vertex 3.198061943054199 90.86776733398438 1
    endloop
  endfacet
  facet normal -1 0 0
    outer loop
      vertex 3.198061943054199 90.86776733398438 1.2999992370605469
      vertex 3.198061943054199 89.13223266601562 1
      vertex 3.198061943054199 89.13223266601562 1.2999992370605469
    endloop
  endfacet
  facet normal 0.9009683201821693 0.4338848764685395 0
    outer loop
      vertex 7 90 1.2999992370605469
      vertex 6.246978759765625 91.56365966796875 1
      vertex 6.246978759765625 91.56365966796875 1.2999992370605469
    endloop
  endfacet
  facet normal 0.9009683201821693 0.4338848764685395 0
    outer loop
      vertex 6.246978759765625 91.56365966796875 1
      vertex 7 90 1.2999992370605469
      vertex 7 90 1
    endloop
  endfacet
  facet normal 0.22252483053345076 -0.9749270228053272 0
    outer loop
      vertex 4.554957389831543 88.05014038085938 1
      vertex 6.246978759765625 88.43634033203125 1.2999992370605469
      vertex 4.554957389831543 88.05014038085938 1.2999992370605469
    endloop
  endfacet
  facet normal 0.22252483053345076 -0.9749270228053272 0
    outer loop
      vertex 6.246978759765625 88.43634033203125 1.2999992370605469
      vertex 4.554957389831543 88.05014038085938 1
      vertex 6.246978759765625 88.43634033203125 1
    endloop
  endfacet
  facet normal -0.6234913074723331 -0.7818302817788786 0
    outer loop
      vertex 3.198061943054199 89.13223266601562 1
      vertex 4.554957389831543 88.05014038085938 1.2999992370605469
      vertex 3.198061943054199 89.13223266601562 1.2999992370605469
    endloop
  endfacet
  facet normal -0.6234913074723331 -0.7818302817788786 0
    outer loop
      vertex 4.554957389831543 88.05014038085938 1.2999992370605469
      vertex 3.198061943054199 89.13223266601562 1
      vertex 4.554957389831543 88.05014038085938 1
    endloop
  endfacet
  facet normal -0.6234913074723331 0.7818302817788786 0
    outer loop
      vertex 4.554957389831543 91.94985961914062 1
      vertex 3.198061943054199 90.86776733398438 1.2999992370605469
      vertex 4.554957389831543 91.94985961914062 1.2999992370605469
    endloop
  endfacet
  facet normal -0.6234913074723331 0.7818302817788786 0
    outer loop
      vertex 3.198061943054199 90.86776733398438 1.2999992370605469
      vertex 4.554957389831543 91.94985961914062 1
      vertex 3.198061943054199 90.86776733398438 1
    endloop
  endfacet
  facet normal 0 0 1
    outer loop
      vertex 6.246978759765625 91.56365966796875 1.2999992370605469
      vertex 6.246978759765625 88.43634033203125 1.2999992370605469
      vertex 7 90 1.2999992370605469
    endloop
  endfacet
  facet normal 0 0 1
    outer loop
      vertex 4.554957389831543 91.94985961914062 1.2999992370605469
      vertex 6.246978759765625 88.43634033203125 1.2999992370605469
      vertex 6.246978759765625 91.56365966796875 1.2999992370605469
    endloop
  endfacet
  facet normal 0 0 1
    outer loop
      vertex 4.554957389831543 91.94985961914062 1.2999992370605469
      vertex 4.554957389831543 88.05014038085938 1.2999992370605469
      vertex 6.246978759765625 88.43634033203125 1.2999992370605469
    endloop
  endfacet
  facet normal 0 0 1
    outer loop
      vertex 3.198061943054199 90.86776733398438 1.2999992370605469
      vertex 4.554957389831543 88.05014038085938 1.2999992370605469
      vertex 4.554957389831543 91.94985961914062 1.2999992370605469
    endloop
  endfacet
  facet normal 0 0 1
    outer loop
      vertex 4.554957389831543 88.05014038085938 1.2999992370605469
      vertex 3.198061943054199 90.86776733398438 1.2999992370605469
      vertex 3.198061943054199 89.13223266601562 1.2999992370605469
    endloop
  endfacet
  facet normal 0.9009683201821693 -0.4338848764685395 0
    outer loop
      vertex 6.246978759765625 88.43634033203125 1.2999992370605469
      vertex 7 90 1
      vertex 7 90 1.2999992370605469
    endloop
  endfacet
  facet normal 0.9009683201821693 -0.4338848764685395 0
    outer loop
      vertex 7 90 1
      vertex 6.246978759765625 88.43634033203125 1.2999992370605469
      vertex 6.246978759765625 88.43634033203125 1
    endloop
  endfacet
endsolid OpenSCAD_Model
