solid OpenSCAD_Model
  facet normal -1 0 0
    outer loop
      vertex 0 0 0
      vertex 0 0 1
      vertex 0 10 0
    endloop
  endfacet
  facet normal -1 0 0
    outer loop
      vertex 0 10 0
      vertex 0 0 1
      vertex 0 10 1
    endloop
  endfacet
  facet normal 0 -1 0
    outer loop
      vertex 0 0 1
      vertex 0 0 0
      vertex 100 0 0
    endloop
  endfacet
  facet normal 0 -1 0
    outer loop
      vertex 100 0 1
      vertex 0 0 1
      vertex 100 0 0
    endloop
  endfacet
  facet normal 0 0 -1
    outer loop
      vertex 0 0 0
      vertex 0 10 0
      vertex 100 0 0
    endloop
  endfacet
  facet normal 0 0 -1
    outer loop
      vertex 100 0 0
      vertex 0 10 0
      vertex 2.22045e-15 10 0
    endloop
  endfacet
  facet normal 0 0 -1
    outer loop
      vertex 10 10 0
      vertex 2.22045e-15 10 0
      vertex 2.22045e-14 100 0
    endloop
  endfacet
  facet normal 0 0 -1
    outer loop
      vertex 100 0 0
      vertex 2.22045e-15 10 0
      vertex 10 10 0
    endloop
  endfacet
  facet normal 0 0 -1
    outer loop
      vertex 100 10 0
      vertex 100 0 0
      vertex 10 10 0
    endloop
  endfacet
  facet normal 0 0 -1
    outer loop
      vertex 10 10 0
      vertex 2.22045e-14 100 0
      vertex 10 100 0
    endloop
  endfacet
  facet normal 0 1 0
    outer loop
      vertex 0 10 0
      vertex 0 10 1
      vertex 2.22045e-15 10 0
    endloop
  endfacet
  facet normal 0 1 0
    outer loop
      vertex 2.22045e-15 10 0
      vertex 0 10 1
      vertex 2.22045e-15 10 1
    endloop
  endfacet
  facet normal 0 0 1
    outer loop
      vertex 0 10 1
      vertex 0 0 1
      vertex 100 0 1
    endloop
  endfacet
  facet normal 0 0 1
    outer loop
      vertex 2.22045e-15 10 1
      vertex 0 10 1
      vertex 100 0 1
    endloop
  endfacet
  facet normal 0 0 1
    outer loop
      vertex 10 10 1
      vertex 2.22045e-15 10 1
      vertex 100 0 1
    endloop
  endfacet
  facet normal 0 0 1
    outer loop
      vertex 90 3 1
      vertex 10 10 1
      vertex 100 0 1
    endloop
  endfacet
  facet normal 0 0 1
    outer loop
      vertex 10 100 1
      vertex 2.22045e-15 10 1
      vertex 10 10 1
    endloop
  endfacet
  facet normal 0 0 1
    outer loop
      vertex 3.19806 90.8678 1
      vertex 2.22045e-14 100 1
      vertex 3.19806 89.1322 1
    endloop
  endfacet
  facet normal 0 0 1
    outer loop
      vertex 10 100 1
      vertex 2.22045e-14 100 1
      vertex 3.19806 90.8678 1
    endloop
  endfacet
  facet normal 0 0 1
    outer loop
      vertex 94 7 1
      vertex 94 3 1
      vertex 100 10 1
    endloop
  endfacet
  facet normal 0 0 1
    outer loop
      vertex 10 100 1
      vertex 3.19806 90.8678 1
      vertex 4.55496 91.9499 1
    endloop
  endfacet
  facet normal 0 0 1
    outer loop
      vertex 4.55496 91.9499 1
      vertex 6.24698 91.5637 1
      vertex 10 100 1
    endloop
  endfacet
  facet normal 0 0 1
    outer loop
      vertex 10 100 1
      vertex 6.24698 91.5637 1
      vertex 7 90 1
    endloop
  endfacet
  facet normal 0 0 1
    outer loop
      vertex 94 3 1
      vertex 90 3 1
      vertex 100 0 1
    endloop
  endfacet
  facet normal 0 0 1
    outer loop
      vertex 90 7 1
      vertex 10 10 1
      vertex 90 3 1
    endloop
  endfacet
  facet normal 0 0 1
    outer loop
      vertex 100 10 1
      vertex 10 10 1
      vertex 90 7 1
    endloop
  endfacet
  facet normal 0 0 1
    outer loop
      vertex 100 10 1
      vertex 90 7 1
      vertex 94 7 1
    endloop
  endfacet
  facet normal 0 0 1
    outer loop
      vertex 100 10 1
      vertex 94 3 1
      vertex 100 0 1
    endloop
  endfacet
  facet normal 0 0 1
    outer loop
      vertex 7 90 1
      vertex 2.22045e-15 10 1
      vertex 10 100 1
    endloop
  endfacet
  facet normal 0 0 1
    outer loop
      vertex 6.24698 88.4363 1
      vertex 2.22045e-15 10 1
      vertex 7 90 1
    endloop
  endfacet
  facet normal 0 0 1
    outer loop
      vertex 4.55496 88.0501 1
      vertex 2.22045e-15 10 1
      vertex 6.24698 88.4363 1
    endloop
  endfacet
  facet normal 0 0 1
    outer loop
      vertex 3.19806 89.1322 1
      vertex 2.22045e-15 10 1
      vertex 4.55496 88.0501 1
    endloop
  endfacet
  facet normal 0 0 1
    outer loop
      vertex 2.22045e-14 100 1
      vertex 2.22045e-15 10 1
      vertex 3.19806 89.1322 1
    endloop
  endfacet
  facet normal 1 0 0
    outer loop
      vertex 100 0 1
      vertex 100 0 0
      vertex 100 10 0
    endloop
  endfacet
  facet normal 1 0 0
    outer loop
      vertex 100 10 1
      vertex 100 0 1
      vertex 100 10 0
    endloop
  endfacet
  facet normal 0 1 0
    outer loop
      vertex 10 10 0
      vertex 10 10 1
      vertex 100 10 0
    endloop
  endfacet
  facet normal 0 1 0
    outer loop
      vertex 100 10 0
      vertex 10 10 1
      vertex 100 10 1
    endloop
  endfacet
  facet normal 1 -2.22045e-16 0
    outer loop
      vertex 10 10 1
      vertex 10 10 0
      vertex 10 100 0
    endloop
  endfacet
  facet normal 1 -2.22045e-16 0
    outer loop
      vertex 10 100 1
      vertex 10 10 1
      vertex 10 100 0
    endloop
  endfacet
  facet normal 2.22045e-16 1 0
    outer loop
      vertex 2.22045e-14 100 0
      vertex 2.22045e-14 100 1
      vertex 10 100 0
    endloop
  endfacet
  facet normal 2.22045e-16 1 0
    outer loop
      vertex 10 100 0
      vertex 2.22045e-14 100 1
      vertex 10 100 1
    endloop
  endfacet
  facet normal -1 2.22045e-16 0
    outer loop
      vertex 2.22045e-15 10 0
      vertex 2.22045e-15 10 1
      vertex 2.22045e-14 100 0
    endloop
  endfacet
  facet normal -1 2.22045e-16 0
    outer loop
      vertex 2.22045e-14 100 0
      vertex 2.22045e-15 10 1
      vertex 2.22045e-14 100 1
    endloop
  endfacet
  facet normal -0.62349 -0.781831 0
    outer loop
      vertex 3.19806 89.1322 1.3
      vertex 3.19806 89.1322 1
      vertex 4.55496 88.0501 1
    endloop
  endfacet
  facet normal -0.62349 -0.781831 0
    outer loop
      vertex 4.55496 88.0501 1.3
      vertex 3.19806 89.1322 1.3
      vertex 4.55496 88.0501 1
    endloop
  endfacet
  facet normal -1 0 0
    outer loop
      vertex 3.19806 89.1322 1
      vertex 3.19806 89.1322 1.3
      vertex 3.19806 90.8678 1
    endloop
  endfacet
  facet normal -1 0 0
    outer loop
      vertex 3.19806 90.8678 1
      vertex 3.19806 89.1322 1.3
      vertex 3.19806 90.8678 1.3
    endloop
  endfacet
  facet normal 0.222521 -0.974928 0
    outer loop
      vertex 4.55496 88.0501 1.3
      vertex 4.55496 88.0501 1
      vertex 6.24698 88.4363 1
    endloop
  endfacet
  facet normal 0.222521 -0.974928 0
    outer loop
      vertex 6.24698 88.4363 1.3
      vertex 4.55496 88.0501 1.3
      vertex 6.24698 88.4363 1
    endloop
  endfacet
  facet normal 0.900969 -0.433884 0
    outer loop
      vertex 6.24698 88.4363 1.3
      vertex 6.24698 88.4363 1
      vertex 7 90 1
    endloop
  endfacet
  facet normal 0.900969 -0.433884 0
    outer loop
      vertex 7 90 1.3
      vertex 6.24698 88.4363 1.3
      vertex 7 90 1
    endloop
  endfacet
  facet normal 0.900969 0.433884 0
    outer loop
      vertex 7 90 1
      vertex 6.24698 91.5637 1
      vertex 6.24698 91.5637 1.3
    endloop
  endfacet
  facet normal 0.900969 0.433884 0
    outer loop
      vertex 7 90 1.3
      vertex 7 90 1
      vertex 6.24698 91.5637 1.3
    endloop
  endfacet
  facet normal 0.222521 0.974928 0
    outer loop
      vertex 4.55496 91.9499 1
      vertex 4.55496 91.9499 1.3
      vertex 6.24698 91.5637 1
    endloop
  endfacet
  facet normal 0.222521 0.974928 0
    outer loop
      vertex 6.24698 91.5637 1
      vertex 4.55496 91.9499 1.3
      vertex 6.24698 91.5637 1.3
    endloop
  endfacet
  facet normal -0.62349 0.781831 0
    outer loop
      vertex 3.19806 90.8678 1
      vertex 3.19806 90.8678 1.3
      vertex 4.55496 91.9499 1
    endloop
  endfacet
  facet normal -0.62349 0.781831 0
    outer loop
      vertex 4.55496 91.9499 1
      vertex 3.19806 90.8678 1.3
      vertex 4.55496 91.9499 1.3
    endloop
  endfacet
  facet normal -1 0 0
    outer loop
      vertex 90 3 1
      vertex 90 3 1.3
      vertex 90 7 1
    endloop
  endfacet
  facet normal -1 0 0
    outer loop
      vertex 90 7 1
      vertex 90 3 1.3
      vertex 90 7 1.3
    endloop
  endfacet
  facet normal 0 -1 0
    outer loop
      vertex 90 3 1.3
      vertex 90 3 1
      vertex 94 3 1
    endloop
  endfacet
  facet normal 0 -1 0
    outer loop
      vertex 94 3 1.3
      vertex 90 3 1.3
      vertex 94 3 1
    endloop
  endfacet
  facet normal 1 0 0
    outer loop
      vertex 94 3 1.3
      vertex 94 3 1
      vertex 94 7 1
    endloop
  endfacet
  facet normal 1 0 0
    outer loop
      vertex 94 7 1.3
      vertex 94 3 1.3
      vertex 94 7 1
    endloop
  endfacet
  facet normal 0 1 0
    outer loop
      vertex 90 7 1
      vertex 90 7 1.3
      vertex 94 7 1
    endloop
  endfacet
  facet normal 0 1 0
    outer loop
      vertex 94 7 1
      vertex 90 7 1.3
      vertex 94 7 1.3
    endloop
  endfacet
  facet normal 0 0 1
    outer loop
      vertex 3.19806 90.8678 1.3
      vertex 3.19806 89.1322 1.3
      vertex 4.55496 88.0501 1.3
    endloop
  endfacet
  facet normal 0 0 1
    outer loop
      vertex 7 90 1.3
      vertex 3.19806 90.8678 1.3
      vertex 6.24698 88.4363 1.3
    endloop
  endfacet
  facet normal 0 0 1
    outer loop
      vertex 6.24698 88.4363 1.3
      vertex 3.19806 90.8678 1.3
      vertex 4.55496 88.0501 1.3
    endloop
  endfacet
  facet normal 0 0 1
    outer loop
      vertex 6.24698 91.5637 1.3
      vertex 3.19806 90.8678 1.3
      vertex 7 90 1.3
    endloop
  endfacet
  facet normal 0 0 1
    outer loop
      vertex 4.55496 91.9499 1.3
      vertex 3.19806 90.8678 1.3
      vertex 6.24698 91.5637 1.3
    endloop
  endfacet
  facet normal 0 0 1
    outer loop
      vertex 90 7 1.3
      vertex 90 3 1.3
      vertex 94 3 1.3
    endloop
  endfacet
  facet normal 0 0 1
    outer loop
      vertex 94 7 1.3
      vertex 90 7 1.3
      vertex 94 3 1.3
    endloop
  endfacet
endsolid OpenSCAD_Model
